<svg width="128" height="128" viewBox="0 0 128 128" xmlns="http://www.w3.org/2000/svg" role="img" aria-label="MedCheck logo">
  <defs>
    <linearGradient id="pillGrad" x1="0" y1="0" x2="1" y2="1">
      <stop offset="0%" stop-color="#BDF8FF"/>
      <stop offset="100%" stop-color="#6EE5F3"/>
    </linearGradient>
  </defs>
  <!-- Dark base check shape -->
  <path d="M20 72 c0 -6 2 -10 6 -14 l18 -18 c4 -4 10 -4 14 0 l8 8 c4 4 4 10 0 14 l-24 24 c-4 4 -10 4 -14 0 l-8 -8 c-2 -2 -4 -4 -4 -6z" fill="#0F1A56"/>
  <!-- Purple heart-like wing -->
  <path d="M28 60 c-8 -8 -8 -20 0 -28 c8 -8 20 -8 28 0 l2 2 l-20 20 l-2 2 c-3 3 -6 4 -8 4z" fill="#A88BDE"/>
  <!-- Cyan pill rotated -->
  <g transform="translate(56,16) rotate(40 28 28)">
    <rect x="2" y="12" rx="14" ry="14" width="60" height="32" fill="url(#pillGrad)" stroke="#0F1A56" stroke-width="2"/>
  </g>
</svg>